<svg 
 xmlns="http://www.w3.org/2000/svg"
 xmlns:xlink="http://www.w3.org/1999/xlink"
 width="0.292in" height="0.417in">
<path fill-rule="evenodd"  fill="rgb(221, 136, 32)"
 d="M10.555,0.330 C5.014,0.330 0.520,4.909 0.520,10.554 C0.520,10.992 0.556,11.409 0.607,11.828 C1.464,19.808 9.908,29.017 9.908,29.017 C10.058,29.186 10.197,29.293 10.338,29.373 L10.347,29.373 L10.627,29.462 L10.906,29.373 L10.915,29.373 C11.054,29.293 11.202,29.186 11.352,29.017 C11.352,29.017 19.675,19.799 20.514,11.810 C20.557,11.400 20.592,10.983 20.592,10.554 C20.592,4.909 16.099,0.330 10.555,0.330 L10.555,0.330 ZM10.555,17.136 C6.999,17.136 4.105,14.179 4.105,10.554 C4.105,6.929 6.999,3.981 10.555,3.981 C14.113,3.981 17.007,6.929 17.007,10.554 C17.007,14.179 14.113,17.136 10.555,17.136 L10.555,17.136 Z"/>
</svg>