<svg 
 xmlns="http://www.w3.org/2000/svg"
 xmlns:xlink="http://www.w3.org/1999/xlink"
 width="0.278in" height="0.403in">
<path fill-rule="evenodd"  fill="rgb(254, 254, 254)"
 d="M9.996,0.003 C4.478,0.003 0.003,4.561 0.003,10.181 C0.003,10.617 0.039,11.032 0.090,11.450 C0.944,19.395 9.352,28.563 9.352,28.563 C9.501,28.731 9.639,28.837 9.780,28.917 L9.789,28.917 L10.067,29.005 L10.346,28.917 L10.355,28.917 C10.493,28.837 10.640,28.731 10.789,28.563 C10.789,28.563 19.077,19.386 19.913,11.432 C19.955,11.023 19.991,10.608 19.991,10.181 C19.991,4.561 15.516,0.003 9.996,0.003 L9.996,0.003 ZM9.996,16.734 C6.455,16.734 3.574,13.790 3.574,10.181 C3.574,6.572 6.455,3.637 9.996,3.637 C13.539,3.637 16.421,6.572 16.421,10.181 C16.421,13.790 13.539,16.734 9.996,16.734 L9.996,16.734 Z"/>
</svg>