<svg 
 xmlns="http://www.w3.org/2000/svg"
 xmlns:xlink="http://www.w3.org/1999/xlink"
 width="0.319in" height="0.361in">
<defs>
<filter id="Filter_0">
    <feFlood flood-color="rgb(0, 0, 0)" flood-opacity="1" result="floodOut" />
    <feComposite operator="atop" in="floodOut" in2="SourceGraphic" result="compOut" />
    <feBlend mode="normal" in="compOut" in2="SourceGraphic" />
</filter>

</defs>
<g filter="url(#Filter_0)">
<path fill-rule="evenodd"  opacity="0.62" fill="rgb(255, 255, 255)"
 d="M22.765,25.864 C22.653,25.954 22.518,25.997 22.383,25.997 C22.204,25.997 22.025,25.918 21.903,25.766 L17.278,19.977 C17.033,20.138 16.792,20.300 16.533,20.458 C14.774,21.468 12.946,21.976 11.087,21.976 C11.087,21.976 11.087,21.976 11.087,21.976 C10.135,21.976 9.155,21.843 8.173,21.580 C5.234,20.795 2.986,19.068 1.493,16.448 C-0.017,13.864 -0.387,11.074 0.398,8.162 C1.187,5.236 2.912,2.991 5.525,1.490 C8.178,-0.009 10.983,-0.373 13.872,0.398 C16.822,1.186 19.070,2.905 20.552,5.507 C22.074,8.136 22.451,10.940 21.670,13.838 C21.069,16.039 19.901,17.834 18.249,19.229 L22.864,25.006 C23.075,25.270 23.031,25.654 22.765,25.864 ZM20.486,13.520 C21.189,10.912 20.862,8.488 19.488,6.114 C18.171,3.802 16.175,2.278 13.554,1.578 C12.674,1.342 11.797,1.223 10.948,1.223 C9.313,1.223 7.693,1.669 6.135,2.550 C3.784,3.900 2.294,5.840 1.583,8.479 C0.876,11.101 1.195,13.509 2.557,15.840 C3.885,18.170 5.880,19.703 8.491,20.401 C9.369,20.635 10.242,20.754 11.087,20.754 C11.087,20.754 11.087,20.754 11.087,20.754 C12.728,20.754 14.350,20.301 15.907,19.408 C16.288,19.175 16.662,18.934 17.013,18.694 C18.720,17.429 19.895,15.684 20.486,13.520 Z"/>
</g>
</svg>