<svg 
 xmlns="http://www.w3.org/2000/svg"
 xmlns:xlink="http://www.w3.org/1999/xlink"
 width="1.222in" height="0.972in">
<path fill-rule="evenodd"  fill="rgb(255, 255, 255)"
 d="M77.828,69.999 L10.170,69.999 C4.561,69.999 -0.000,65.407 -0.000,59.761 L-0.000,18.237 C-0.000,12.590 4.561,7.997 10.170,7.997 L23.975,7.997 L25.184,3.893 C25.677,1.648 27.716,-0.000 30.115,-0.000 L57.885,-0.000 C60.216,-0.000 62.279,1.639 62.824,3.914 L62.857,4.054 L63.958,7.997 L77.830,7.997 C83.438,7.997 88.000,12.590 88.000,18.236 L88.000,59.759 C87.998,65.407 83.435,69.999 77.828,69.999 ZM10.170,11.410 C6.430,11.410 3.390,14.472 3.390,18.237 L3.390,59.761 C3.390,63.525 6.431,66.586 10.170,66.586 L77.828,66.586 C81.568,66.586 84.608,63.525 84.608,59.761 L84.608,18.237 C84.608,14.472 81.567,11.410 77.828,11.410 L61.391,11.410 L59.535,4.747 C59.363,3.972 58.670,3.411 57.884,3.411 L30.113,3.411 C29.314,3.411 28.636,3.960 28.462,4.749 L26.503,11.410 L10.170,11.410 ZM44.002,59.683 C32.138,59.683 22.487,49.968 22.487,38.026 C22.487,26.083 32.138,16.368 44.002,16.368 C55.861,16.368 65.511,26.085 65.511,38.026 C65.511,49.966 55.861,59.683 44.002,59.683 ZM44.002,19.779 C34.008,19.779 25.877,27.963 25.877,38.025 C25.877,48.086 34.008,56.269 44.002,56.269 C53.993,56.269 62.121,48.084 62.121,38.025 C62.121,27.963 53.992,19.779 44.002,19.779 ZM75.640,17.745 C73.911,17.745 72.513,19.156 72.513,20.894 C72.513,22.633 73.911,24.043 75.640,24.043 C77.367,24.043 78.766,22.633 78.766,20.894 C78.764,19.156 77.365,17.745 75.640,17.745 Z"/>
</svg>