<svg 
 xmlns="http://www.w3.org/2000/svg"
 xmlns:xlink="http://www.w3.org/1999/xlink"
 width="0.736in" height="0.514in">
<path fill-rule="evenodd"  fill="rgb(255, 255, 255)"
 d="M52.999,3.527 L52.999,3.322 C52.999,2.560 52.652,1.664 52.027,1.043 L51.956,0.972 C51.956,0.972 51.885,0.972 51.885,0.902 C51.743,0.762 51.608,0.697 51.467,0.556 C51.396,0.556 51.396,0.485 51.325,0.485 C51.183,0.415 50.977,0.345 50.836,0.281 C50.765,0.281 50.765,0.211 50.694,0.211 C50.488,0.140 50.275,0.069 50.069,0.069 C49.999,0.069 49.999,0.069 49.928,0.069 C49.722,0.069 49.438,-0.001 49.162,-0.001 L3.759,-0.001 C3.483,-0.001 3.206,-0.001 2.922,0.069 C2.852,0.069 2.781,0.069 2.716,0.140 C2.510,0.211 2.298,0.211 2.163,0.281 C2.092,0.281 2.092,0.351 2.021,0.351 C1.879,0.422 1.673,0.492 1.532,0.556 L1.461,0.627 C1.319,0.697 1.184,0.832 1.042,0.902 C0.972,0.972 0.901,1.043 0.836,1.107 C0.347,1.658 0.070,2.285 -0.001,2.977 C-0.001,3.047 -0.001,3.047 -0.001,3.117 L-0.001,33.888 C-0.001,33.958 -0.001,33.958 -0.001,34.029 C0.141,34.995 0.624,35.828 1.319,36.307 C1.944,36.723 2.710,36.999 3.611,36.999 L49.303,36.999 C49.303,36.999 49.303,36.999 49.374,36.999 L49.374,36.999 C49.580,36.999 49.864,36.999 50.069,36.929 C50.140,36.929 50.140,36.929 50.211,36.929 C50.418,36.858 50.630,36.858 50.765,36.788 L50.836,36.788 C52.368,36.237 52.993,34.919 52.993,33.676 L52.993,33.471 L52.993,33.401 L52.993,33.331 L52.993,3.732 C52.993,3.662 52.993,3.662 52.993,3.591 C52.999,3.597 52.999,3.597 52.999,3.527 ZM48.550,2.560 L26.644,23.785 L21.634,18.944 L21.634,18.944 L4.455,2.554 L48.550,2.554 L48.550,2.560 ZM2.581,33.055 L2.581,4.289 L18.782,19.777 L2.581,33.055 ZM25.949,34.502 L4.874,34.502 L20.662,21.640 L25.736,26.550 C25.942,26.755 26.155,26.826 26.361,26.896 L26.432,26.896 C26.503,26.896 26.503,26.896 26.573,26.896 L26.573,26.896 C26.644,26.896 26.715,26.896 26.715,26.896 L26.786,26.896 C26.992,26.826 27.275,26.755 27.410,26.550 L32.208,21.915 L48.060,34.502 L25.949,34.502 L25.949,34.502 ZM50.424,33.119 L34.152,20.052 L50.424,4.289 L50.424,33.119 Z"/>
</svg>