<svg 
 xmlns="http://www.w3.org/2000/svg"
 xmlns:xlink="http://www.w3.org/1999/xlink"
 width="0.694in" height="0.694in">
<path fill-rule="evenodd"  fill="rgb(255, 255, 255)"
 d="M49.999,25.002 C49.999,11.225 38.773,-0.000 24.996,-0.000 C11.219,-0.000 -0.001,11.225 -0.001,25.002 C-0.001,32.590 3.442,39.416 8.798,44.006 C8.863,44.070 8.928,44.135 9.052,44.194 C13.386,47.832 18.937,49.999 25.061,49.999 C31.054,49.999 36.606,47.832 40.941,44.324 C41.194,44.259 41.389,44.070 41.513,43.875 C46.686,39.222 49.999,32.526 49.999,25.002 ZM2.296,25.002 C2.296,12.501 12.500,2.296 25.002,2.296 C37.503,2.296 47.708,12.501 47.708,25.002 C47.708,31.126 45.287,36.671 41.329,40.757 C40.693,37.758 38.779,32.655 32.909,29.343 C34.250,27.683 35.011,25.516 35.011,23.219 C35.011,17.732 30.547,13.268 25.061,13.268 C19.575,13.268 15.111,17.732 15.111,23.219 C15.111,25.516 15.937,27.618 17.213,29.343 C11.290,32.655 9.377,37.758 8.803,40.757 C4.783,36.736 2.296,31.126 2.296,25.002 ZM17.349,23.278 C17.349,19.067 20.791,15.625 25.002,15.625 C29.212,15.625 32.655,19.067 32.655,23.278 C32.655,27.488 29.212,30.931 25.002,30.931 C20.791,30.931 17.349,27.488 17.349,23.278 ZM10.841,42.730 C10.971,40.882 11.987,34.628 18.878,31.120 C20.602,32.461 22.705,33.222 25.002,33.222 C27.300,33.222 29.466,32.396 31.191,31.055 C38.017,34.563 39.098,40.686 39.293,42.665 C35.401,45.789 30.429,47.702 25.073,47.702 C19.646,47.707 14.733,45.860 10.841,42.730 Z"/>
</svg>