<svg 
 xmlns="http://www.w3.org/2000/svg"
 xmlns:xlink="http://www.w3.org/1999/xlink"
 width="0.569in" height="0.653in">
<path fill-rule="evenodd"  fill="rgb(255, 255, 255)"
 d="M20.499,-0.001 C12.413,-0.001 5.856,6.676 5.856,14.913 L5.856,17.624 L2.928,17.624 C1.312,17.624 -0.001,18.941 -0.001,20.562 L-0.001,44.062 C-0.001,45.683 1.312,46.999 2.928,46.999 L38.070,46.999 C39.687,46.999 40.999,45.683 40.999,44.062 L40.999,20.562 C40.999,18.941 39.687,17.624 38.070,17.624 L35.142,17.624 L35.142,14.913 C35.142,6.676 28.587,-0.001 20.499,-0.001 ZM8.785,14.913 C8.785,8.310 14.039,2.937 20.499,2.937 C26.960,2.937 32.214,8.310 32.214,14.913 L32.214,17.624 L8.785,17.624 L8.785,14.913 ZM38.070,44.062 L2.928,44.062 L2.928,20.562 L38.070,20.562 L38.070,44.062 ZM26.356,32.312 C26.356,29.064 23.737,26.437 20.499,26.437 C17.263,26.437 14.642,29.064 14.642,32.312 C14.642,35.559 17.263,38.187 20.499,38.187 C23.737,38.187 26.356,35.559 26.356,32.312 ZM20.499,35.249 C18.886,35.249 17.571,33.930 17.571,32.312 C17.571,30.694 18.886,29.374 20.499,29.374 C22.112,29.374 23.428,30.694 23.428,32.312 C23.428,33.930 22.112,35.249 20.499,35.249 Z"/>
</svg>