<?xml version="1.0" encoding="utf-8"?>
<!-- Generator: Adobe Illustrator 23.1.0, SVG Export Plug-In . SVG Version: 6.00 Build 0)  -->
<svg version="1.1" xmlns="http://www.w3.org/2000/svg" xmlns:xlink="http://www.w3.org/1999/xlink" x="0px" y="0px"
	 viewBox="0 0 653.33 677.33" style="enable-background:new 0 0 653.33 677.33;" xml:space="preserve">
<style type="text/css">
	.st0{fill:#376D80;}
	.st1{fill:#FFFFFF;}
	.st2{fill:#49433C;}
	.st3{fill:none;stroke:#DAB33D;stroke-width:1.5;stroke-linecap:round;stroke-linejoin:round;stroke-miterlimit:10;}
	.st4{fill:#DAB33E;}
	.st5{fill:none;}
	.st6{fill:#DAB33D;}
	.st7{fill:#FDF5A6;}
</style>
<g id="MENU_x5F_PLANET_x5F_AZUL">
	<path class="st0" d="M212.71,481.24c1.9,11.27,4.05,23.06,5.95,34.33c1.9-3.42,3.93-6.71,5.57-9.63c0,0.13,0.38-0.63,0.51-0.89
		l17.35-29.64c2.66-4.31,5.7-10.13,7.85-14.57c2.03-3.93,6.71-6.08,12.03-5.95h6.46c3.67-0.13,6.33,2.91,5.45,5.7
		c-1.39,4.18-2.91,11.15-5.07,22.04c-6.08,32.18-8.23,45.1-8.87,51.81c0,0.51-0.13,1.01-0.13,1.52v1.14
		c-0.13,3.67-3.67,6.46-8.11,6.33h-3.29c-3.8,0.13-6.08-3.17-5.19-6.08c0.76-2.41,1.77-6.84,3.17-14.19l10.01-51.56
		c-9.37,15.83-18.62,32.18-28,48.01c-1.77,3.17-3.04,5.19-3.8,6.59c-1.77,3.04-1.77,3.29-4.05,7.73c-1.14,2.53-4.18,3.93-7.6,3.93
		c-2.91,0-5.32-1.77-5.57-3.93c-0.38-2.79-0.89-6.08-2.15-14.19c-2.28-11.65-4.56-24.32-6.84-35.98c-0.25-1.65-0.51-3.17-0.76-4.43
		c-0.76-4.05-0.89-4.56-0.89-4.56c0-0.25,0-0.63-0.13-1.39c-3.17,15.83-6.46,31.54-9.5,47.38c-1.27,6.97-2.15,12.67-2.53,16.21
		c-0.38,3.93-4.69,6.59-9.37,6.59h-1.27c-3.55,0.13-6.21-3.04-5.19-5.95c1.52-4.31,3.17-10.13,5.19-17.74
		c2.28-8.49,6.21-24.96,6.71-27.49c3.67-17.23,4.81-26.22,4.94-31.42c0-3.55,3.55-6.21,7.85-6.08c1.01,0.13,2.15,0.13,3.29,0.13
		c1.39,0,2.53,0,3.67-0.13c4.81-0.13,8.99,2.66,9.5,6.84C210.43,467.43,211.44,473.64,212.71,481.24z"/>
	<path class="st0" d="M306.07,537.23c4.94,0,8.87-1.27,11.91-2.53c2.41-1.14,5.19,0.63,4.56,2.91c-0.89,2.91-3.29,5.7-7.22,6.71
		c-3.17,0.63-7.09,1.27-12.16,1.27c-21.16-0.63-26.35-12.29-26.6-28.12c0-13.81,6.71-25.08,10.89-30.28
		c8.74-10.77,20.65-14.31,29.39-14.31c12.79,0,19.25,6.59,19.25,15.2c0,3.8-1.65,8.74-4.31,12.79c-3.17,4.69-8.49,8.23-12.67,10.39
		c-8.49,4.18-16.98,4.56-26.86,4.94c-0.13,0.38-0.38,2.28-0.38,4.81C291.88,527.22,293.79,537.36,306.07,537.23z M301.39,487.57
		c-5.07,5.83-7.73,18.5-8.74,25.72c7.85-0.76,16.34-5.7,22.93-11.91c3.29-3.17,5.7-7.6,5.7-12.67c0-5.7-3.42-8.36-7.22-8.36
		c-2.28,0-7.09,0.89-12.54,7.22H301.39z"/>
	<path class="st0" d="M345.6,498.72c0.89-5.19,1.9-11.65,1.9-16.47v-0.76c-0.13-2.91,1.27-6.08,4.94-6.46
		c1.52-0.13,2.79-0.38,4.18-0.63c3.55-0.51,7.09,2.03,6.71,4.94c-0.25,1.52-0.89,4.69-1.52,7.85c1.52-2.91,3.29-5.95,5.7-7.98
		c5.07-3.93,11.53-6.33,18.5-6.33c7.47,0,17.61,2.79,17.61,13.17c0,2.28-0.38,5.07-1.52,11.02c-1.01,5.7-2.15,12.03-3.17,17.74
		c-1.01,5.45-2.79,15.71-3.17,22.17c-0.25,3.67-4.05,6.33-8.36,6.33h-1.14c-3.67,0.13-6.71-2.66-5.95-5.57
		c1.14-3.93,2.53-10.13,4.69-22.55l1.52-8.49c1.14-6.21,1.9-11.15,1.9-14.82c0-6.33-2.15-8.99-8.87-8.99
		c-5.32,0-11.65,3.93-15.33,8.74c-4.31,5.57-5.83,14.57-6.97,21.54l-2.28,14.82c-0.63,3.93-0.89,6.84-1.01,9.25
		c-0.25,3.55-4.18,5.95-8.36,5.95h-1.01c-3.67,0.13-6.84-2.66-6.21-5.45c1.39-4.56,2.28-9.37,3.17-15.2L345.6,498.72z"/>
	<path class="st0" d="M428.7,513.67c-1.39,6.46-1.9,9.37-1.9,12.16c0,4.81,2.03,8.99,7.98,8.99c2.41,0,9.63-1.01,15.08-9.75
		c2.91-5.07,5.83-16.72,7.73-26.48c1.39-7.47,2.03-12.42,2.15-15.58c0.13-3.55,2.79-6.97,6.84-7.73c0.51-0.13,1.27-0.13,1.65-0.25
		h-0.13c0.38-0.13,0.76-0.25,1.39-0.25c3.42-0.51,6.97,2.15,6.33,4.81c-1.77,6.33-3.67,14.69-5.7,26.35
		c-3.17,17.61-4.31,26.1-4.31,30.91v1.01c0.13,3.29-3.29,5.95-7.22,5.95c-4.31,0-7.85-3.04-7.6-6.59c0-1.52,0.25-4.18,0.63-6.84
		c-1.9,3.67-4.56,7.85-8.11,10.39c-5.7,3.8-13.05,4.43-14.95,4.43c-8.99,0-16.97-4.43-16.97-13.68c0-1.77,0.25-3.55,1.01-8.23
		l6.33-33.7c0.51-2.53,0.76-4.56,0.89-6.08c0.25-3.29,1.9-6.97,6.08-7.73c0.38-0.13,1.14-0.13,1.52-0.25
		c0.38-0.13,1.01-0.25,1.52-0.25c3.8-0.63,7.35,2.41,6.71,5.57c-1.52,5.83-2.03,8.36-3.29,14.19L428.7,513.67z"/>
	<path class="st0" d="M112.97,589.87c1.65-8.99,2.41-14.44,2.79-17.86c0.38-3.67,3.04-7.09,7.6-6.97h2.15
		c3.17,0,7.22-0.13,11.02-0.25h1.14c2.91-0.13,6.33-0.25,7.85-0.25c14.19,0,25.97,4.43,25.97,20.02c0,6.08-2.41,34.58-41.8,34.58
		c-3.67,0-4.56,0.13-6.97-0.25l-4.18,23.56c-0.13,0.51-0.13,1.01-0.25,1.52c-0.13,1.14-0.25,2.15-0.38,3.04
		c-0.63,3.8-4.05,6.97-8.74,6.97h-2.15c-3.93,0-6.71-3.29-5.83-6.46c1.77-5.7,3.42-13.43,4.81-19.76L112.97,589.87z M124.12,609.76
		c1.01,0,2.66,0.13,3.55,0.13c6.08,0,11.91-0.89,16.09-2.66c9.37-4.81,11.4-16.98,11.4-21.92c0-12.79-10.89-12.79-16.85-12.79
		c-1.01,0-2.03,0.13-3.67,0.13c-1.14,0-1.27,0.13-3.04,0.13c-1.39,6.08-2.15,9.75-2.66,12.16c-0.38,1.65-0.63,3.04-1.14,5.07
		L124.12,609.76z"/>
	<path class="st0" d="M204.05,654.73c-13.17-0.13-14.44-8.61-14.06-15.07c0.13-2.66,0.63-5.57,1.01-7.85
		c0.25-1.39,0.38-2.66,0.38-3.17c0.25-1.52,0.51-2.53,0.63-3.42c0.51-2.91,0.89-4.81,4.81-27.36c2.41-13.81,3.55-22.17,3.42-26.35
		c-0.13-2.91,1.39-6.33,5.07-6.71c1.39-0.13,2.53-0.38,4.05-0.76c3.55-0.89,7.09,1.9,6.84,5.07c-0.63,3.17-1.39,6.97-2.41,12.42
		c-0.51,2.66-1.14,5.7-1.77,9.25c-1.9,11.27-3.93,22.93-5.83,34.2c-0.25,1.65-0.51,3.8-0.89,5.57c-0.76,4.69-1.65,9.37-0.63,12.29
		c0,0,0.89,3.55,3.67,3.67c2.28,0,3.29-0.25,5.07-0.89c0.13,0,0.89-0.25,1.27-0.38c2.66-0.89,4.81,1.39,3.93,3.67
		c-1.14,2.91-4.43,4.94-8.23,5.45C208.49,654.6,206.21,654.73,204.05,654.73z"/>
	<path class="st0" d="M299.82,585.56c3.67-1.14,6.97,2.15,6.46,5.32c-1.01,4.18-2.41,10.77-4.56,22.42l-2.28,12.54
		c-2.03,11.27-2.79,19-2.79,22.93c0,3.04-3.55,5.19-7.22,5.32c-3.8,0.13-7.09-2.41-6.84-5.45c0.25-2.79,0.89-6.84,1.39-10.13
		c0.38-2.15,0.38-1.52,0.38-2.28c-0.13,0.13-0.25,0.51-0.38,0.63c-5.57,7.98-12.79,18.62-23.56,18.62
		c-9.88,0-19.76-6.71-19.76-21.16c0-5.83,3.55-29.14,21.54-43.58c3.17-2.28,10.51-7.09,21.54-7.09c5.95,0,9.88,1.39,13.68,2.79
		L299.82,585.56z M291.08,593.67h0.63c-0.25,0-0.38,0-0.51-0.13h0.13c-2.41-0.76-5.7-1.9-9.75-1.9c-20.27,0-25.72,27.36-25.72,38
		c0,8.74,2.79,15.2,10.13,15.2c4.18,0,9.25-2.15,13.68-8.61c3.55-4.94,5.83-12.29,8.11-24.96L291.08,593.67z"/>
	<path class="st0" d="M334.91,609.12c0.89-5.19,1.9-11.65,1.9-16.47v-0.76c-0.13-2.91,1.27-6.08,4.94-6.46
		c1.52-0.13,2.79-0.38,4.18-0.63c3.55-0.51,7.09,2.03,6.71,4.94c-0.25,1.52-0.89,4.69-1.52,7.85c1.52-2.91,3.29-5.95,5.7-7.98
		c5.07-3.93,11.53-6.33,18.5-6.33c7.47,0,17.61,2.79,17.61,13.17c0,2.28-0.38,5.07-1.52,11.02c-1.01,5.7-2.15,12.03-3.17,17.74
		c-1.01,5.45-2.79,15.71-3.17,22.17c-0.25,3.67-4.05,6.33-8.36,6.33h-1.14c-3.67,0.13-6.71-2.66-5.95-5.57
		c1.14-3.93,2.53-10.13,4.69-22.55l1.52-8.49c1.14-6.21,1.9-11.15,1.9-14.82c0-6.33-2.15-8.99-8.87-8.99
		c-5.32,0-11.65,3.93-15.33,8.74c-4.31,5.57-5.83,14.57-6.97,21.54l-2.28,14.82c-0.63,3.93-0.89,6.84-1.01,9.25
		c-0.25,3.55-4.18,5.95-8.36,5.95h-1.01c-3.67,0.13-6.84-2.66-6.21-5.45c1.39-4.56,2.28-9.37,3.17-15.2L334.91,609.12z"/>
	<path class="st0" d="M446.9,647.63c4.94,0,8.87-1.27,11.91-2.53c2.41-1.14,5.19,0.63,4.56,2.91c-0.89,2.91-3.29,5.7-7.22,6.71
		c-3.17,0.63-7.09,1.27-12.16,1.27c-21.16-0.63-26.35-12.29-26.6-28.12c0-13.81,6.71-25.08,10.89-30.28
		c8.74-10.77,20.65-14.31,29.39-14.31c12.79,0,19.26,6.59,19.26,15.2c0,3.8-1.65,8.74-4.31,12.79c-3.17,4.69-8.49,8.23-12.67,10.39
		c-8.49,4.18-16.97,4.56-26.86,4.94c-0.13,0.38-0.38,2.28-0.38,4.81C432.71,637.62,434.61,647.76,446.9,647.63z M442.21,597.97
		c-5.07,5.83-7.73,18.5-8.74,25.72c7.85-0.76,16.34-5.7,22.93-11.91c3.29-3.17,5.7-7.6,5.7-12.67c0-5.7-3.42-8.36-7.22-8.36
		c-2.28,0-7.09,0.89-12.54,7.22H442.21z"/>
	<path class="st0" d="M525.95,583.53c1.77,0,3.42,0,4.69-0.13c3.04-0.25,5.45,2.03,4.94,4.43c-0.63,2.66-3.8,4.31-7.35,4.31
		c-2.53-0.13-5.83-0.13-7.6-0.13c-0.63,3.29-1.52,8.11-2.53,12.79c-1.27,6.33-2.66,13.81-3.55,18.24
		c-1.39,6.59-2.41,12.29-2.41,15.96c0,4.94,2.53,6.97,6.08,6.97c1.14,0,2.15-0.13,3.17-0.38c2.66-0.38,5.07,1.52,4.56,3.55
		c-0.76,3.04-3.55,5.83-7.47,6.33c-0.89,0.13-2.15,0.13-3.17,0.13c-7.85,0-13.05-2.41-14.95-4.94c-1.77-2.53-2.66-4.81-2.66-7.6
		c0-2.41,0.51-5.19,1.14-8.74l8.23-42.31h1.01c-0.38,0-0.63-0.13-0.89-0.13c-2.79,0-4.94-2.03-4.56-4.18
		c0.38-2.53,2.91-4.56,6.21-4.18h-0.13c0.63-3.42,1.01-6.08,1.27-8.87c0.38-4.05,3.8-7.47,8.61-8.61c3.67-0.76,7.47,1.52,6.71,4.56
		c-1.14,4.05-1.9,7.47-2.91,13.05C523.54,583.66,524.68,583.53,525.95,583.53z"/>
</g>
<g id="MENU_x5F_PLANET_x5F_BRANCO">
	<path class="st1" d="M209.04,478.03c1.9,11.27,4.05,23.06,5.95,34.33c1.9-3.42,3.93-6.71,5.57-9.63c0,0.13,0.38-0.63,0.51-0.89
		l17.35-29.64c2.66-4.31,5.7-10.13,7.85-14.57c2.03-3.93,6.71-6.08,12.03-5.95h6.46c3.67-0.13,6.33,2.91,5.45,5.7
		c-1.39,4.18-2.91,11.15-5.07,22.04c-6.08,32.18-8.23,45.1-8.87,51.81c0,0.51-0.13,1.01-0.13,1.52v1.14
		c-0.13,3.67-3.67,6.46-8.11,6.33h-3.29c-3.8,0.13-6.08-3.17-5.19-6.08c0.76-2.41,1.77-6.84,3.17-14.19l10.01-51.56
		c-9.37,15.83-18.62,32.18-28,48.01c-1.77,3.17-3.04,5.19-3.8,6.59c-1.77,3.04-1.77,3.29-4.05,7.73c-1.14,2.53-4.18,3.93-7.6,3.93
		c-2.91,0-5.32-1.77-5.57-3.93c-0.38-2.79-0.89-6.08-2.15-14.19c-2.28-11.65-4.56-24.32-6.84-35.98c-0.25-1.65-0.51-3.17-0.76-4.43
		c-0.76-4.05-0.89-4.56-0.89-4.56c0-0.25,0-0.63-0.13-1.39c-3.17,15.83-6.46,31.54-9.5,47.38c-1.27,6.97-2.15,12.67-2.53,16.21
		c-0.38,3.93-4.69,6.59-9.37,6.59h-1.27c-3.55,0.13-6.21-3.04-5.19-5.95c1.52-4.31,3.17-10.13,5.19-17.74
		c2.28-8.49,6.21-24.96,6.71-27.49c3.67-17.23,4.81-26.22,4.94-31.42c0-3.55,3.55-6.21,7.85-6.08c1.01,0.13,2.15,0.13,3.29,0.13
		c1.39,0,2.53,0,3.67-0.13c4.81-0.13,8.99,2.66,9.5,6.84C206.76,464.22,207.78,470.43,209.04,478.03z"/>
	<path class="st1" d="M302.41,534.02c4.94,0,8.87-1.27,11.91-2.53c2.41-1.14,5.19,0.63,4.56,2.91c-0.89,2.91-3.29,5.7-7.22,6.71
		c-3.17,0.63-7.09,1.27-12.16,1.27c-21.16-0.63-26.35-12.29-26.6-28.12c0-13.81,6.71-25.08,10.89-30.28
		c8.74-10.77,20.65-14.31,29.39-14.31c12.79,0,19.25,6.59,19.25,15.2c0,3.8-1.65,8.74-4.31,12.79c-3.17,4.69-8.49,8.23-12.67,10.39
		c-8.49,4.18-16.98,4.56-26.86,4.94c-0.13,0.38-0.38,2.28-0.38,4.81C288.22,524.01,290.12,534.15,302.41,534.02z M297.72,484.36
		c-5.07,5.83-7.73,18.5-8.74,25.72c7.85-0.76,16.34-5.7,22.93-11.91c3.29-3.17,5.7-7.6,5.7-12.67c0-5.7-3.42-8.36-7.22-8.36
		c-2.28,0-7.09,0.89-12.54,7.22H297.72z"/>
	<path class="st1" d="M341.93,495.51c0.89-5.19,1.9-11.65,1.9-16.47v-0.76c-0.13-2.91,1.27-6.08,4.94-6.46
		c1.52-0.13,2.79-0.38,4.18-0.63c3.55-0.51,7.09,2.03,6.71,4.94c-0.25,1.52-0.89,4.69-1.52,7.85c1.52-2.91,3.29-5.95,5.7-7.98
		c5.07-3.93,11.53-6.33,18.5-6.33c7.47,0,17.61,2.79,17.61,13.17c0,2.28-0.38,5.07-1.52,11.02c-1.01,5.7-2.15,12.03-3.17,17.74
		c-1.01,5.45-2.79,15.71-3.17,22.17c-0.25,3.67-4.05,6.33-8.36,6.33h-1.14c-3.67,0.13-6.71-2.66-5.95-5.57
		c1.14-3.93,2.53-10.13,4.69-22.55l1.52-8.49c1.14-6.21,1.9-11.15,1.9-14.82c0-6.33-2.15-8.99-8.87-8.99
		c-5.32,0-11.65,3.93-15.33,8.74c-4.31,5.57-5.83,14.57-6.97,21.54l-2.28,14.82c-0.63,3.93-0.89,6.84-1.01,9.25
		c-0.25,3.55-4.18,5.95-8.36,5.95h-1.01c-3.67,0.13-6.84-2.66-6.21-5.45c1.39-4.56,2.28-9.37,3.17-15.2L341.93,495.51z"/>
	<path class="st1" d="M425.04,510.46c-1.39,6.46-1.9,9.37-1.9,12.16c0,4.81,2.03,8.99,7.98,8.99c2.41,0,9.63-1.01,15.08-9.75
		c2.91-5.07,5.83-16.72,7.73-26.48c1.39-7.47,2.03-12.42,2.15-15.58c0.13-3.55,2.79-6.97,6.84-7.73c0.51-0.13,1.27-0.13,1.65-0.25
		h-0.13c0.38-0.13,0.76-0.25,1.39-0.25c3.42-0.51,6.97,2.15,6.33,4.81c-1.77,6.33-3.67,14.69-5.7,26.35
		c-3.17,17.61-4.31,26.1-4.31,30.91v1.01c0.13,3.29-3.29,5.95-7.22,5.95c-4.31,0-7.85-3.04-7.6-6.59c0-1.52,0.25-4.18,0.63-6.84
		c-1.9,3.67-4.56,7.85-8.11,10.39c-5.7,3.8-13.05,4.43-14.95,4.43c-8.99,0-16.97-4.43-16.97-13.68c0-1.77,0.25-3.55,1.01-8.23
		l6.33-33.7c0.51-2.53,0.76-4.56,0.89-6.08c0.25-3.29,1.9-6.97,6.08-7.73c0.38-0.13,1.14-0.13,1.52-0.25s1.01-0.25,1.52-0.25
		c3.8-0.63,7.35,2.41,6.71,5.57c-1.52,5.83-2.03,8.36-3.29,14.19L425.04,510.46z"/>
	<path class="st1" d="M108.23,586.44c1.65-8.99,2.41-14.44,2.79-17.86c0.38-3.67,3.04-7.09,7.6-6.97h2.15
		c3.17,0,7.22-0.13,11.02-0.25h1.14c2.91-0.13,6.33-0.25,7.85-0.25c14.19,0,25.97,4.43,25.97,20.02c0,6.08-2.41,34.58-41.8,34.58
		c-3.67,0-4.56,0.13-6.97-0.25l-4.18,23.56c-0.13,0.51-0.13,1.01-0.25,1.52c-0.13,1.14-0.25,2.15-0.38,3.04
		c-0.63,3.8-4.05,6.97-8.74,6.97h-2.15c-3.93,0-6.71-3.29-5.83-6.46c1.77-5.7,3.42-13.43,4.81-19.76L108.23,586.44z M119.38,606.33
		c1.01,0,2.66,0.13,3.55,0.13c6.08,0,11.91-0.89,16.09-2.66c9.37-4.81,11.4-16.98,11.4-21.92c0-12.79-10.89-12.79-16.85-12.79
		c-1.01,0-2.03,0.13-3.67,0.13c-1.14,0-1.27,0.13-3.04,0.13c-1.39,6.08-2.15,9.75-2.66,12.16c-0.38,1.65-0.63,3.04-1.14,5.07
		L119.38,606.33z"/>
	<path class="st1" d="M199.31,651.3c-13.17-0.13-14.44-8.61-14.06-15.07c0.13-2.66,0.63-5.57,1.01-7.85
		c0.25-1.39,0.38-2.66,0.38-3.17c0.25-1.52,0.51-2.53,0.63-3.42c0.51-2.91,0.89-4.81,4.81-27.36c2.41-13.81,3.55-22.17,3.42-26.35
		c-0.13-2.91,1.39-6.33,5.07-6.71c1.39-0.13,2.53-0.38,4.05-0.76c3.55-0.89,7.09,1.9,6.84,5.07c-0.63,3.17-1.39,6.97-2.41,12.42
		c-0.51,2.66-1.14,5.7-1.77,9.25c-1.9,11.27-3.93,22.93-5.83,34.2c-0.25,1.65-0.51,3.8-0.89,5.57c-0.76,4.69-1.65,9.37-0.63,12.29
		c0,0,0.89,3.55,3.67,3.67c2.28,0,3.29-0.25,5.07-0.89c0.13,0,0.89-0.25,1.27-0.38c2.66-0.89,4.81,1.39,3.93,3.67
		c-1.14,2.91-4.43,4.94-8.23,5.45C203.75,651.17,201.47,651.3,199.31,651.3z"/>
	<path class="st1" d="M295.08,582.13c3.67-1.14,6.97,2.15,6.46,5.32c-1.01,4.18-2.41,10.77-4.56,22.42l-2.28,12.54
		c-2.03,11.27-2.79,19-2.79,22.93c0,3.04-3.55,5.19-7.22,5.32c-3.8,0.13-7.09-2.41-6.84-5.45c0.25-2.79,0.89-6.84,1.39-10.13
		c0.38-2.15,0.38-1.52,0.38-2.28c-0.13,0.13-0.25,0.51-0.38,0.63c-5.57,7.98-12.79,18.62-23.56,18.62
		c-9.88,0-19.76-6.71-19.76-21.16c0-5.83,3.55-29.14,21.54-43.58c3.17-2.28,10.51-7.09,21.54-7.09c5.95,0,9.88,1.39,13.68,2.79
		L295.08,582.13z M286.34,590.24h0.63c-0.25,0-0.38,0-0.51-0.13h0.13c-2.41-0.76-5.7-1.9-9.75-1.9c-20.27,0-25.72,27.36-25.72,38
		c0,8.74,2.79,15.2,10.13,15.2c4.18,0,9.25-2.15,13.68-8.61c3.55-4.94,5.83-12.29,8.11-24.96L286.34,590.24z"/>
	<path class="st1" d="M330.17,605.7c0.89-5.19,1.9-11.65,1.9-16.47v-0.76c-0.13-2.91,1.27-6.08,4.94-6.46
		c1.52-0.13,2.79-0.38,4.18-0.63c3.55-0.51,7.09,2.03,6.71,4.94c-0.25,1.52-0.89,4.69-1.52,7.85c1.52-2.91,3.29-5.95,5.7-7.98
		c5.07-3.93,11.53-6.33,18.5-6.33c7.47,0,17.61,2.79,17.61,13.17c0,2.28-0.38,5.07-1.52,11.02c-1.01,5.7-2.15,12.03-3.17,17.74
		c-1.01,5.45-2.79,15.71-3.17,22.17c-0.25,3.67-4.05,6.33-8.36,6.33h-1.14c-3.67,0.13-6.71-2.66-5.95-5.57
		c1.14-3.93,2.53-10.13,4.69-22.55l1.52-8.49c1.14-6.21,1.9-11.15,1.9-14.82c0-6.33-2.15-8.99-8.87-8.99
		c-5.32,0-11.65,3.93-15.33,8.74c-4.31,5.57-5.83,14.57-6.97,21.54l-2.28,14.82c-0.63,3.93-0.89,6.84-1.01,9.25
		c-0.25,3.55-4.18,5.95-8.36,5.95h-1.01c-3.67,0.13-6.84-2.66-6.21-5.45c1.39-4.56,2.28-9.37,3.17-15.2L330.17,605.7z"/>
	<path class="st1" d="M442.16,644.21c4.94,0,8.87-1.27,11.91-2.53c2.41-1.14,5.19,0.63,4.56,2.91c-0.89,2.91-3.29,5.7-7.22,6.71
		c-3.17,0.63-7.09,1.27-12.16,1.27c-21.16-0.63-26.35-12.29-26.6-28.12c0-13.81,6.71-25.08,10.89-30.28
		c8.74-10.77,20.65-14.31,29.39-14.31c12.79,0,19.26,6.59,19.26,15.2c0,3.8-1.65,8.74-4.31,12.79c-3.17,4.69-8.49,8.23-12.67,10.39
		c-8.49,4.18-16.97,4.56-26.86,4.94c-0.13,0.38-0.38,2.28-0.38,4.81C427.97,634.2,429.87,644.33,442.16,644.21z M437.47,594.55
		c-5.07,5.83-7.73,18.5-8.74,25.72c7.85-0.76,16.34-5.7,22.93-11.91c3.29-3.17,5.7-7.6,5.7-12.67c0-5.7-3.42-8.36-7.22-8.36
		c-2.28,0-7.09,0.89-12.54,7.22H437.47z"/>
	<path class="st1" d="M521.21,580.11c1.77,0,3.42,0,4.69-0.13c3.04-0.25,5.45,2.03,4.94,4.43c-0.63,2.66-3.8,4.31-7.35,4.31
		c-2.53-0.13-5.83-0.13-7.6-0.13c-0.63,3.29-1.52,8.11-2.53,12.79c-1.27,6.33-2.66,13.81-3.55,18.24
		c-1.39,6.59-2.41,12.29-2.41,15.96c0,4.94,2.53,6.97,6.08,6.97c1.14,0,2.15-0.13,3.17-0.38c2.66-0.38,5.07,1.52,4.56,3.55
		c-0.76,3.04-3.55,5.83-7.47,6.33c-0.89,0.13-2.15,0.13-3.17,0.13c-7.85,0-13.05-2.41-14.95-4.94c-1.77-2.53-2.66-4.81-2.66-7.6
		c0-2.41,0.51-5.19,1.14-8.74l8.23-42.31h1.01c-0.38,0-0.63-0.13-0.89-0.13c-2.79,0-4.94-2.03-4.56-4.18
		c0.38-2.53,2.91-4.56,6.21-4.18h-0.13c0.63-3.42,1.01-6.08,1.27-8.87c0.38-4.05,3.8-7.47,8.61-8.61c3.67-0.76,7.47,1.52,6.71,4.56
		c-1.14,4.05-1.9,7.47-2.91,13.05C518.8,580.23,519.94,580.11,521.21,580.11z"/>
</g>
<g id="MAR_x5F_inf">
	<path class="st2" d="M263.28,315.63c-0.01,0.07-0.05,0.11-0.06,0.18C263.27,315.77,263.3,315.72,263.28,315.63z"/>
	<path class="st3" d="M341.95,318.86"/>
	<g>
		<path class="st0" d="M329.1,253.51c66.08-18.47,125.63-63.75,120.18-41.67c-13.26,53.69-58.27,94.95-115.11,106.39
			c-47.59,9.58-93.91-2.54-128.27-32.96c-4.15-3.67-2.49-8.29,3.1-9.74C232.04,269.56,253.78,274.57,329.1,253.51z"/>
	</g>
	<path class="st4" d="M244.13,308.74"/>
	<path class="st5" d="M388.34,231.54c-18.26,7.88-39.15,16.14-61.14,22.53c-9.89,2.88-19.64,5.31-29.06,7.41
		c-0.12,0.54-0.23,1.07-0.38,1.62c-0.53,1.96-6.57,4.99-8.44,5.9c-5.31,2.59-1.83,6.31-2.95,9.93c-1.67,1.3-4.67,8.58-5.45,10.53
		c-0.06,0.14-0.62,0.84-1.43,1.74c17.29,2.26,34.92,1.78,51.89-1.64c25.49-5.13,48.99-17.61,68.18-34.91
		c-2.86-4.47-5.86-8.69-6.85-9.72C388.5,240.55,388.23,235.67,388.34,231.54z"/>
	<path class="st5" d="M240.6,271.73c-5.11,0.77-10.27,1.55-15,2.34c5.84,3.12,11.88,5.86,18.09,8.2c-0.62-3.58-0.33-7.25-1.26-10.81
		C241.82,271.55,241.19,271.64,240.6,271.73z"/>
	<path class="st5" d="M344.2,315.93c-2.93,0.78-5.9,1.49-8.91,2.1C338.22,317.5,341.2,316.77,344.2,315.93z"/>
	<path class="st5" d="M240.6,271.73c-5.11,0.77-10.27,1.55-15,2.34c5.84,3.12,11.88,5.86,18.09,8.2l0,0
		c-0.62-3.58-0.33-7.25-1.26-10.81C241.82,271.55,241.19,271.64,240.6,271.73z"/>
	<path class="st5" d="M331.39,289.57c25.49-5.13,48.99-17.61,68.18-34.91c-2.86-4.47-5.86-8.69-6.85-9.72
		c-4.22-4.4-4.49-9.28-4.37-13.41c-18.26,7.88-39.15,16.14-61.14,22.53c-9.89,2.88-19.64,5.31-29.06,7.41
		c-0.12,0.54-0.23,1.07-0.38,1.62c-0.53,1.96-6.57,4.99-8.44,5.9c-5.31,2.59-1.83,6.31-2.95,9.93c-1.67,1.3-4.67,8.58-5.45,10.53
		c-0.06,0.14-0.62,0.84-1.43,1.74l0,0C296.78,293.47,314.42,292.99,331.39,289.57z"/>
	<polygon class="st2" points="220.26,271.08 220.25,271.08 220.26,271.08 	"/>
	<path class="st2" d="M204.67,275.56c0.1-0.07,0.2-0.13,0.31-0.2C204.87,275.43,204.77,275.5,204.67,275.56z"/>
	<path class="st2" d="M202.23,278.42c0.02-0.07,0.04-0.14,0.07-0.21C202.27,278.28,202.25,278.35,202.23,278.42z"/>
	<polygon class="st2" points="435.6,206.24 435.6,206.24 435.61,206.23 	"/>
</g>
<g id="PIN">
	<path class="st6" d="M449.94,203.44c-3.41-2.29-11.78,1.33-35.45,12.16c-22.97,10.5-54.42,24.89-88.36,34.76
		c-32.46,9.45-63.47,14.13-86.11,17.55c-23.81,3.6-34.45,5.35-37.24,9.34c-0.65,0.93-0.88,1.99-0.66,3.05
		c0.4,1.98,1.52,4.09,3.21,6.26c-0.07-0.04-0.1-0.06-0.1-0.06l0.38,0.41c1.03,1.27,2.25,2.56,3.67,3.87l113.4,119.81
		c0.76,0.76,0.65,0.79,1.29,0l104.89-149.7c13.49-18.23,21.79-37.74,22.47-54.52C451.39,205.12,450.89,204.08,449.94,203.44z
		 M244.04,306.13c-21.54-8.7-36.71-19.54-38.14-26.58c0.87-2.7,18.06-5.3,34.7-7.81c0.59-0.09,1.22-0.18,1.82-0.28
		c0.97,3.74,0.58,7.59,1.34,11.33C244.5,286.5,243.84,297.5,244.04,306.13z M335.29,318.03c-23.85,4.33-49.57,1.11-71.76-5.23
		c1.34,0.17,2.61,0.12,2.23-1.75c-1.21-6.61,4.69-2.55,7.63-6.95c3.91-5.89-2.04-3.92-2.91-8.23c0.97,4.8,10.19-5.79,10.44-6.41
		c0.78-1.95,3.78-9.23,5.45-10.53c1.11-3.62-2.36-7.35,2.95-9.93c1.87-0.91,7.91-3.94,8.44-5.9c0.15-0.55,0.26-1.09,0.38-1.62
		c9.42-2.1,19.17-4.53,29.06-7.41c21.98-6.4,42.88-14.65,61.14-22.53c-0.11,4.13,0.15,9.01,4.37,13.41
		c2.16,2.26,14.03,19.91,12.84,21.72c3.88,2.57,8.38,2.71,13.08,0.69C395.92,292.9,363.52,312.91,335.29,318.03z M428.61,254.87
		c0.71-3.84,0.88-7.62,2.49-9.76c2.17-2.9,6.44-4.37,1.96-8.73c-2.11-2.05-0.46-4.64,1.1-6.63c5.2-6.67,8.11-6.35,5.1-15.68
		c0.26-0.95-0.65-2.63-1.74-4.44c4.76-1.93,8.4-3.14,9.94-3.01C446.7,222.88,439.55,239.52,428.61,254.87z"/>
</g>
<g id="SOMBRA_x5F_inf">
	<path class="st2" d="M432.69,211.33c-19.95,48.12-106.04,113.94-207.1,62.78c-0.29,0.02-20.14,3.18-19.67,5.58
		c1.12,4.09,5.65,7.98,5.65,7.98c24.03,20.14,76.78,37.76,122.6,30.6l1.12-0.2c3.01-0.61,6-1.25,8.91-2.1
		c54.3-15.8,102.02-68.71,103.21-109.31C447.42,205.92,434.56,210.4,432.69,211.33z"/>
</g>
<g id="MAR_x5F_sup">
	<path class="st0" d="M453.89,149.07c3.36,16.69,6.87,23.79,2.52,26.55c-12.63,8-78.26,36.76-139.22,52.24
		c-54.48,13.83-94.62,23.41-134.82,27.45c-4.44,0.45-17.19-22.82-22.97-45.82C136.91,120,197.77,41.18,275.69,25.49
		c54.92-7.92,38.76,3.15,48.58,13.44c0.42,0.43-2.06,5.73,6.37,12.42c4.79,3.8,19.48,7.72,19.56,8.59
		c0.1,0.97,1.36,13.85,15.35,24.69c2.94,2.29,21.8,7.15,32.19,2.69c9.75,26.26,43.09,21.22,43.42,21.09
		C441.7,108.21,450.45,131.96,453.89,149.07"/>
</g>
<g id="GARFO">
	<g>
		<path class="st4" d="M381.1,118.39c1.58-0.26,1.64-0.94,0.94-1.79C381.86,117.53,381.53,118.32,381.1,118.39z"/>
		<path class="st4" d="M293.8,41.67C296.15,44.39,296.64,42.14,293.8,41.67L293.8,41.67z"/>
		<path class="st4" d="M634.51,105.37c-0.29-0.61-0.97-1.11-1.77-1.36c-0.05-0.02-0.11-0.03-0.17-0.04
			c-0.11-0.03-0.23-0.06-0.34-0.07c-0.1-0.01-0.2-0.02-0.31-0.02c-0.09,0-0.19-0.01-0.28-0.01c-0.08,0-0.16,0.02-0.24,0.03
			c-0.12,0.01-0.24,0.03-0.36,0.06c-0.07,0.02-0.14,0.05-0.21,0.07c-0.1,0.03-0.21,0.06-0.31,0.11l-52.22,25.13
			c-2.18,1.05-4.81,0.12-5.86-2.05l-1.45-3.02c-1.41-2.94,0.02-5.99,2.96-7.4l46.14-26.15c1.16-0.65,1.72-1.94,1.51-3.19l0.03-0.01
			c-0.01-0.06-0.04-0.12-0.06-0.18c-0.01-0.06-0.04-0.11-0.06-0.17c-0.05-0.15-0.09-0.29-0.16-0.42c-0.06-0.13-0.15-0.26-0.23-0.39
			c-0.03-0.05-0.06-0.1-0.1-0.15c-0.04-0.05-0.06-0.11-0.1-0.16l-0.03,0.02c-0.84-0.94-2.2-1.31-3.43-0.81l-49.23,19.75
			c-2.94,1.41-6.22,0.63-7.63-2.31l-1.45-3.02c-1.05-2.18-0.12-4.81,2.05-5.86l52.22-25.13c0.1-0.05,0.18-0.11,0.28-0.17
			c0.06-0.04,0.13-0.08,0.19-0.12c0.1-0.07,0.18-0.16,0.27-0.24c0.06-0.06,0.12-0.11,0.18-0.17c0.06-0.07,0.11-0.15,0.17-0.23
			c0.06-0.08,0.12-0.17,0.17-0.25c0.06-0.1,0.11-0.21,0.16-0.32c0.02-0.05,0.05-0.1,0.07-0.16c0.31-0.77,0.34-1.62,0.04-2.23
			c-0.8-1.67-2.36-2.26-3.82-1.77c-0.02,0.01-0.04,0.01-0.06,0.01l-17.93,5.95c-17.05,5.53-39.41,12.7-44.94,15.36
			c-8.53,4.1-27.15,16.9-19.88,39.95c-21.87,8.82-44.18,16.67-67.32,23.03c-2.35,0.65-4.11,0-4.85-2.72
			c-0.11-0.6-0.2-1.21-0.32-1.81c-2.52-12.51-6.58-24.65-12.07-36.09c-0.56-1.16-1.88-1.74-3.11-1.34c-1.87,0.6-3.47,0.99-5.02,1.23
			c-14.72,2.21-29.22-6.3-34.43-20.26c-0.25-0.67-0.76-1.2-1.41-1.47c-0.65-0.27-1.39-0.27-2.04,0.02c-2.69,1.2-5.45,2.01-8.19,2.42
			c-17.32,2.61-33.5-9.37-36.1-26.67l-0.09-0.91c-0.15-1.2-1.11-2.13-2.31-2.24c-14.51-1.4-26.15-12.44-28.31-26.84
			c-0.31-2.09-0.42-4.23-0.31-6.35c0.06-1.26-0.79-2.38-2.02-2.65c-2.3-0.5-4.63-0.95-6.97-1.38c-0.11-0.02-0.23-0.03-0.34-0.04
			c-12.49-0.58-25.05,0.38-37.32,2.85c-40.04,8.06-74.54,31.22-97.15,65.23c-22.61,34.01-30.63,74.78-22.57,114.82
			c1.34,6.67,2.97,12.8,4.89,18.64c-0.77,2.36-3.43,4.37-5.99,4.63c-1.42,0.15-54.09,8.97-75.92-11.98
			c-10.91-13.3-4.51-39.85,48.82-63.7c7.62-3.37,8.96-13.47,10.16-18.24c0.88-3.52-2.16-6.91-5.71-6.17c-0.02,0-0.05,0.01-0.07,0.01
			c-24.53,5.25-46.39,15.8-68.44,28.28c-50.63,26.94-50.32,69.13-40.2,79.44c23.95,30.75,81.37,35.21,156.74,24.11
			c0.05,0,0.08,0.02,0.13,0.02c0.13,0,0.26-0.01,0.4-0.03l2.92-0.37c44.69-5.59,74.21-9.29,132.76-27.12
			c53.37-16.25,85.66-30.17,116.89-43.63c0.55-0.24,1.09-0.47,1.64-0.7c1.58-0.64,3.21-1.29,4.89-1.96
			c31.83-13.18,64.37-29.57,95.08-46.8c13.52,18.23,34.23,11.83,42.54,7.83c5.52-2.66,25.09-15.66,40.04-25.53l15.84-10.3
			c0.02-0.01,0.03-0.03,0.05-0.04C634.81,108.62,635.31,107.03,634.51,105.37z M449.92,174.32c1.18-3.38,1.33-6.6-0.55-9.02
			c-14.52,6.95-14.55,2.83-25.74-7.18c-5.53-4.92-13.1-14.7-16.87-21.73c1.26,1.53,2.78,2.73,4.54,3.6
			c1.38-11.44-17.14-3.41-25.47-5.84c-3.51,6.63-5.71,5.79-13.09,3.15c-7.46-2.67-7.53-0.04-8.65-8.36
			c-10.42,4-28.16,5.52-33.96,14.8c-2.68,4.29-1.05,9.52-4.7,12.83c-3.95,3.39-5.59,6.13-6.3,11.82c-0.72,6.99,0.92,14.9,2.23,21.42
			c2.61,4.29,13.64,10.11,18.24,12.29c5.77,2.84,17.16-6.92,22.34-7.97c0.2-0.04,11.33,2.42,11.63,2.57
			c3.62,1.77,0.34,3.62,2.12,6.11c-0.72,0.63-0.81,1.5-0.56,2.5c-17.06,6.43-36.51,13.16-60.09,20.34
			c-4.35,1.32-8.51,2.56-12.56,3.73c-0.68-0.74-1.6-1.3-2.73-1.7c-3.5-1.26-8.59-1.2-11.66-1.87c-4.25,0.85-4-0.39-6.89-1.46
			c-6.4-2.38-3.98,2.33-7.44,3.02c-0.51,0.1-4.43-1.35-4.61-2.2c-0.78-3.89,3.24-2.49,0.73-5.7c-0.8-1.06-1.44-2.2-1.94-3.42
			c-4.85-0.17-25.59-6.53-23.91-8.45c-5.77,1.77-10.22,2.88-15.78,0.54c0.45,0.42,0.96,0.76,1.52,1.01
			c0.09-0.12-3.71,3.93-3.11,4.88c-1.37-1.07,0.33-6.33-0.81-6.1c-10.13,2.04-9.39,11.98-8.21,17.82
			c0.16,3.72-8.18,11.69-1.92,14.27c-0.16,3.7-1.87,5.79,0.49,8.22c-10.5,1.51-21.24,2.86-33.05,4.34l-1.28,0.16
			c-0.14-0.35-0.28-0.68-0.48-0.99c-10.33-15.56-16.39-30.43-20.28-49.73c-3.49-17.32-3.83-34.78-1.22-51.74
			c9.93-1.28,20.52-3.02,25.38-6.95c5.1,2.51,12.73-2.1,15.5-0.27c0.57-2.12,14.07,6.4,14.39,6.34c-1.14,0.23-4.78,2.84-4.05,6.44
			c3.97,4.4,28.55-27.04,29.28-12.84c0.93-0.46,3.62-2.39,4.6-2.66c-0.01,0.86,0.39,1.13,1.2,0.8c-11.66,3.41,6.81,5.87,5.36-1.29
			c0.13,0.67-10.73-4.23-9.38-4.5c1.13-0.63,1.91-1.55,2.36-2.77c-0.68-3.36-8.76,3.05-9.47,3.29c2.23-8.76,30.64-8.94,20.7-19.92
			c-0.52,0.45-5.65,4.42-6.66,3.15c1.91-0.84,3.56-2.04,4.94-3.6c0,0.72-8.92-4.15-9.1-5c-0.51-2.51-5.82-6.5-7.99-7.97
			c-1.88,2.03-4.87,10.62-8.37,3.83c-1.27-2.46-6.67-7.4-10.25-6.68c-14.99,3.02-0.46,7.3-7.84,12c3.36,3.74,8.96,9.28,1,12.64
			c6.22,1.73,0.78,16.29-4.88,1.13c-1.35-3.62-17.22-3.29-20.75-2.57c-0.69-3.44-2.3-5.02-5.14-3.82c0.41-3.43-1.77-5.77,0.56-9.28
			c0.33-0.5,4.31-6.15,4.39-5.74c-0.84-0.52-1.74-0.81-2.69-0.9c3.8-0.13,7.01-3.19,8.36-6.49c-2.18,0.56-4.17,0.2-5.98-1.09
			c6,1.94,5.95-3.42,6.3-3.49c1.69-0.34,10.28,0.33,9.27-4.64c-0.52-2.59-1.46-7.55-6.19-6.6c-3.25,0.27-2.55,9.74-5.52,9.21
			c-3.55-0.64-1.29-2.36-1.61-3.95c-0.1-0.51-0.24-0.87-0.38-1.17c11.14-15.06,24.82-27.66,40.36-37.36
			c1.68,1.12,3.25,2.99,4.74,5.64c3.15,4.07,2.36,6.18,10.31,7.09c0.12,3.05-4.16,0.07-5.87,1.18c0.78,2.21,6.18,1.24,7.78,1.42
			c-0.37,3.3-0.86,3.84-2.93,5.45c-4.15,7.42,1.61,8.81,5.99,12.54c-4.16,6.21,17.12,13.6,17.25,7.96
			c0.16-6.83,0.46-15.1,6.72-19.24c0.3,0.24,23.8-15.08,26.51-18.31c-1.38-0.17-7.32,1.6-7.78-0.72c2.12-0.89,0.62-1.08,0.29-2.7
			c11.08,4.01,8.21-1.54,0.16-6.07c1.26-0.25,2.25-0.25,3.01-0.12c-0.44-0.52-0.95-1.2-1.52-2.12c3.82,1.18,7.67-2.09,8.24-5.61
			c-1.14,0.29-2.12,0.03-2.94-0.79c-0.35-1.72,3.66-0.97,0.91-3.93c-0.53-0.58-3.08-1.69-3.18-2.21c-0.21-1.07,0.89-1.34,2.17-1.5
			c0.02-0.03,0.03-0.06,0.05-0.08c2.83-0.16,5.67-0.27,8.5-0.27c2.22,0,4.44,0.05,6.66,0.15c1.53,0.28,3.05,0.57,4.56,0.88
			c0.02,1.73,0.15,3.46,0.41,5.17c2.41,16.06,14.95,28.52,30.86,30.95c1.5,8.5,5.85,15.84,11.9,21.18c-0.38,0.94-1.3,1.66-3.29,2.06
			c-6.26,1.26-5.24,14.17-13.46,12.77c0.2,0.79,0.58,1.49,0.8,2.27c-0.76,0.36-6.07,0.21-5.7,2.05c0.44,2.19,9.4,1.03,8.12,5.51
			c2.06,6.9-2.54,3.55-6.44,6.3c-12.73,0.04-6.8,18.51,1.98,16.74c4.22-0.85,9.68-5.03,8.89-8.94c-0.22-1.08,5.43-11.23,6.11-11.37
			c8.48-1.71,7.58-5.08,15.6,0.26c-0.4-0.27,7.12,3.2,9,5.48c0.17-0.85,0.21-1.79,0.1-2.38c0.78-1.64,1.98-1.91,3.59-0.8
			c-0.23-3.84-21.43-7.76-10.75-9.91c7.36-1.48,13.28,13.43,18.39,12.4c-0.76,2.17,0.23,3.29,2.71,2.79c-0.25-0.07-1-2.81-1.04-3.12
			c1.27,0.85,2.09,0.94,3.12,0c-2.05-1.4-2.71-2.64-4.55-4.01c-0.4-2.01,9.62-2.13,11.44-4.87c-2.95-2.92-2.05-4.03-1.72-7.15
			c2.71,3.05,5.92,5.61,9.43,7.61c-6.57,0.97-14.48,2.87-13.74,6.58c0.25,1.23,2.15,0.25,0.33,2.99c0.34,0.09,5.58,2.23,4.15,3.05
			c5.37-0.12,10.93-0.71,15.46-3.52c0.78,5.16-2.72,11.33,1.06,15.61c-0.25,2.16,11.24,17.8,14.45,17.88
			c0.23,1.15,6.76,10.5,8.01,11.75c1.92,1.94,3.43,0.99,5.31-1c1.67-0.21,3.5-1,5.15-2.19c0.43,4.3,0.69,8.61,0.75,12.9
			c0.01,0.74,0.02,1.12,0.03,1.4c0,0.03,0,0.06,0.01,0.09C452.46,173.24,451.2,173.78,449.92,174.32z"/>
	</g>
</g>
<g id="SOMBRA_x5F_sup">
	<path class="st2" d="M193.87,251.18c-18.88-18.08-30.04-40-35.46-69.97c0.31,7.14,1.08,14.36,2.63,21.55
		c6.01,27.92,16.25,42.27,20.84,49.99L193.87,251.18z"/>
	<path class="st2" d="M446.57,122.47c4.15,25.82,2.06,35.44-0.61,53.33l7.78-3.1c-0.28-10.38-1.04-17.87-2.63-28.56
		C450.31,138.77,448.1,125.73,446.57,122.47z"/>
</g>
<g id="BRILHO">
	<path class="st7" d="M280.49,92.38c2.47,19.8,27.89,32.93,56.79,29.33c23.78-2.97,46.33-12.58,44.56-28.8
		c-0.01-0.13-0.19-0.48-0.48-0.63c-19.22-1.73-28.16-15.85-30.91-22.81c-1.5-3.8-2-6.69-2.09-7.2c-8.45-1.33-16.55-5.74-21.94-12.05
		C297.99,54.06,278.05,72.77,280.49,92.38z"/>
</g>
</svg>
