<svg 
 xmlns="http://www.w3.org/2000/svg"
 xmlns:xlink="http://www.w3.org/1999/xlink"
 width="0.625in" height="0.431in">
<path fill-rule="evenodd"  fill="rgb(255, 255, 255)"
 d="M44.219,3.166 L44.219,2.996 C44.219,2.365 43.931,1.622 43.413,1.108 L43.355,1.049 C43.355,1.049 43.296,1.049 43.296,0.991 C43.178,0.874 43.067,0.821 42.949,0.704 C42.891,0.704 42.891,0.645 42.832,0.645 C42.714,0.587 42.544,0.528 42.426,0.476 C42.368,0.476 42.368,0.418 42.309,0.418 C42.138,0.359 41.962,0.300 41.791,0.300 C41.733,0.300 41.733,0.300 41.674,0.300 C41.503,0.300 41.268,0.242 41.039,0.242 L3.410,0.242 C3.181,0.242 2.952,0.242 2.717,0.300 C2.658,0.300 2.599,0.300 2.546,0.359 C2.375,0.418 2.199,0.418 2.087,0.476 C2.028,0.476 2.028,0.534 1.970,0.534 C1.852,0.592 1.681,0.651 1.564,0.704 L1.505,0.763 C1.388,0.821 1.276,0.932 1.159,0.991 C1.100,1.049 1.041,1.108 0.988,1.160 C0.583,1.617 0.353,2.137 0.294,2.710 C0.294,2.769 0.294,2.769 0.294,2.827 L0.294,28.328 C0.294,28.386 0.294,28.386 0.294,28.445 C0.412,29.246 0.812,29.936 1.388,30.333 C1.906,30.678 2.541,30.907 3.288,30.907 L41.156,30.907 C41.156,30.907 41.156,30.907 41.215,30.907 L41.215,30.907 C41.386,30.907 41.621,30.907 41.791,30.849 C41.850,30.849 41.850,30.849 41.909,30.849 C42.080,30.790 42.255,30.790 42.368,30.732 L42.426,30.732 C43.696,30.276 44.214,29.183 44.214,28.153 L44.214,27.983 L44.214,27.925 L44.214,27.866 L44.214,3.336 C44.214,3.278 44.214,3.278 44.214,3.219 C44.219,3.224 44.219,3.224 44.219,3.166 ZM40.532,2.365 L22.377,19.955 L18.225,15.943 L18.225,15.943 L3.987,2.360 L40.532,2.360 L40.532,2.365 ZM2.434,27.638 L2.434,3.798 L15.861,16.634 L2.434,27.638 ZM21.800,28.838 L4.334,28.838 L17.419,18.178 L21.624,22.247 C21.795,22.417 21.971,22.475 22.142,22.534 L22.201,22.534 C22.259,22.534 22.259,22.534 22.318,22.534 L22.318,22.534 C22.377,22.534 22.436,22.534 22.436,22.534 L22.494,22.534 C22.665,22.475 22.900,22.417 23.012,22.247 L26.988,18.405 L40.126,28.838 L21.800,28.838 L21.800,28.838 ZM42.085,27.691 L28.599,16.862 L42.085,3.798 L42.085,27.691 Z"/>
</svg>