<svg 
 xmlns="http://www.w3.org/2000/svg"
 xmlns:xlink="http://www.w3.org/1999/xlink"
 width="0.194in" height="0.347in">
<path fill-rule="evenodd"  fill="rgb(255, 255, 255)"
 d="M13.514,-0.010 L10.333,-0.015 C6.760,-0.015 4.452,2.387 4.452,6.104 L4.452,8.925 L1.254,8.925 C0.977,8.925 0.753,9.152 0.753,9.432 L0.753,13.520 C0.753,13.800 0.977,14.027 1.254,14.027 L4.451,14.027 L4.451,24.342 C4.451,24.621 4.675,24.849 4.952,24.849 L9.124,24.849 C9.400,24.849 9.624,24.621 9.624,24.342 L9.624,14.027 L13.363,14.027 C13.639,14.027 13.863,13.800 13.863,13.520 L13.864,9.432 C13.864,9.297 13.811,9.169 13.718,9.074 C13.624,8.978 13.497,8.925 13.364,8.925 L9.624,8.925 L9.624,6.533 C9.624,5.384 9.894,4.800 11.371,4.800 L13.513,4.800 C13.790,4.800 14.014,4.572 14.014,4.293 L14.014,0.497 C14.014,0.218 13.790,-0.010 13.514,-0.010 Z"/>
</svg>